<svg width="136" height="128" viewBox="0 0 136 128" fill="none" xmlns="http://www.w3.org/2000/svg">
<path d="M135.414 38.5162C135.02 25.0673 128.74 14.0132 119.857 7.25522C108.431 -1.44665 92.6771 -3.04321 79.5828 6.45085C75.2611 9.59522 71.2164 13.9462 67.7197 19.6621C64.2229 13.9462 60.1844 9.59522 55.8566 6.45694C42.7622 -3.04322 27.0145 -1.44665 15.5824 7.26132C6.69276 14.0193 0.419537 25.0733 0.025537 38.5223C-0.189932 45.6641 0.918191 53.6348 4.87666 61.6968C11.0945 74.3535 40.3059 102.494 67.4919 126.796L67.7073 127.028L67.7197 127.016L67.732 127.028L67.9536 126.796C95.1334 102.501 124.339 74.3596 130.563 61.6968C134.527 53.6348 135.623 45.658 135.414 38.5162Z" fill="url(#paint0_radial_1_5)"/>
<ellipse cx="101.26" cy="28.2542" rx="8.16263" ry="10.5587" transform="rotate(-39.9996 101.26 28.2542)" fill="#DBDBDB"/>
<defs>
<radialGradient id="paint0_radial_1_5" cx="0" cy="0" r="1" gradientUnits="userSpaceOnUse" gradientTransform="translate(47.2197 63.919) rotate(-36.0274) scale(108.812 116.016)">
<stop stop-color="#F8002D"/>
<stop offset="1" stop-color="#FF7B93"/>
</radialGradient>
</defs>
</svg>
